<mxfile host="Electron" modified="2025-10-28T09:46:36.982Z" agent="Mozilla/5.0 (Windows NT 10.0; Win64; x64) AppleWebKit/537.36 (KHTML, like Gecko) draw.io/22.0.3 Chrome/114.0.5735.289 Electron/25.8.4 Safari/537.36" etag="RvxB_7mtJ-ovPcpympHQ" version="22.0.3" type="device">
  <diagram name="Seite-1" id="4CHFw5LyLPjLJZJw1z8A">
    <mxGraphModel dx="1220" dy="696" grid="1" gridSize="10" guides="1" tooltips="1" connect="1" arrows="0" fold="1" page="1" pageScale="1" pageWidth="827" pageHeight="1169" math="0" shadow="0">
      <root>
        <mxCell id="0" />
        <mxCell id="1" parent="0" />
        <mxCell id="OpBf5v95MKLxLmsZDk0Y-1" value="Kunde" style="whiteSpace=wrap;html=1;aspect=fixed;" vertex="1" parent="1">
          <mxGeometry x="180" y="240" width="120" height="120" as="geometry" />
        </mxCell>
        <mxCell id="OpBf5v95MKLxLmsZDk0Y-2" value="Bestellung" style="whiteSpace=wrap;html=1;aspect=fixed;" vertex="1" parent="1">
          <mxGeometry x="480" y="240" width="120" height="120" as="geometry" />
        </mxCell>
        <mxCell id="OpBf5v95MKLxLmsZDk0Y-13" style="edgeStyle=orthogonalEdgeStyle;rounded=0;orthogonalLoop=1;jettySize=auto;html=1;exitX=0.5;exitY=1;exitDx=0;exitDy=0;entryX=0.5;entryY=0;entryDx=0;entryDy=0;endArrow=none;endFill=0;" edge="1" parent="1" source="OpBf5v95MKLxLmsZDk0Y-3" target="OpBf5v95MKLxLmsZDk0Y-1">
          <mxGeometry relative="1" as="geometry" />
        </mxCell>
        <mxCell id="OpBf5v95MKLxLmsZDk0Y-3" value="&lt;u&gt;KundenID(PK)&lt;/u&gt;" style="ellipse;whiteSpace=wrap;html=1;" vertex="1" parent="1">
          <mxGeometry x="180" y="120" width="120" height="80" as="geometry" />
        </mxCell>
        <mxCell id="OpBf5v95MKLxLmsZDk0Y-16" style="edgeStyle=orthogonalEdgeStyle;shape=connector;rounded=0;orthogonalLoop=1;jettySize=auto;html=1;exitX=1;exitY=0;exitDx=0;exitDy=0;entryX=0;entryY=1;entryDx=0;entryDy=0;labelBackgroundColor=default;strokeColor=default;align=center;verticalAlign=middle;fontFamily=Helvetica;fontSize=11;fontColor=default;endArrow=none;endFill=0;" edge="1" parent="1" source="OpBf5v95MKLxLmsZDk0Y-4" target="OpBf5v95MKLxLmsZDk0Y-1">
          <mxGeometry relative="1" as="geometry" />
        </mxCell>
        <mxCell id="OpBf5v95MKLxLmsZDk0Y-4" value="Email" style="ellipse;whiteSpace=wrap;html=1;" vertex="1" parent="1">
          <mxGeometry x="-30" y="400" width="120" height="80" as="geometry" />
        </mxCell>
        <mxCell id="OpBf5v95MKLxLmsZDk0Y-17" style="edgeStyle=orthogonalEdgeStyle;shape=connector;rounded=0;orthogonalLoop=1;jettySize=auto;html=1;exitX=0.5;exitY=0;exitDx=0;exitDy=0;entryX=0.5;entryY=1;entryDx=0;entryDy=0;labelBackgroundColor=default;strokeColor=default;align=center;verticalAlign=middle;fontFamily=Helvetica;fontSize=11;fontColor=default;endArrow=none;endFill=0;" edge="1" parent="1" source="OpBf5v95MKLxLmsZDk0Y-5" target="OpBf5v95MKLxLmsZDk0Y-1">
          <mxGeometry relative="1" as="geometry" />
        </mxCell>
        <mxCell id="OpBf5v95MKLxLmsZDk0Y-5" value="Telefonummer" style="ellipse;whiteSpace=wrap;html=1;" vertex="1" parent="1">
          <mxGeometry x="180" y="400" width="120" height="80" as="geometry" />
        </mxCell>
        <mxCell id="OpBf5v95MKLxLmsZDk0Y-14" style="edgeStyle=orthogonalEdgeStyle;shape=connector;rounded=0;orthogonalLoop=1;jettySize=auto;html=1;exitX=1;exitY=1;exitDx=0;exitDy=0;entryX=0;entryY=0;entryDx=0;entryDy=0;labelBackgroundColor=default;strokeColor=default;align=center;verticalAlign=middle;fontFamily=Helvetica;fontSize=11;fontColor=default;endArrow=none;endFill=0;" edge="1" parent="1" source="OpBf5v95MKLxLmsZDk0Y-6" target="OpBf5v95MKLxLmsZDk0Y-1">
          <mxGeometry relative="1" as="geometry" />
        </mxCell>
        <mxCell id="OpBf5v95MKLxLmsZDk0Y-6" value="Name(Vor/Nach)" style="ellipse;whiteSpace=wrap;html=1;" vertex="1" parent="1">
          <mxGeometry x="-30" y="130" width="120" height="80" as="geometry" />
        </mxCell>
        <mxCell id="OpBf5v95MKLxLmsZDk0Y-7" value="Adresse" style="ellipse;whiteSpace=wrap;html=1;" vertex="1" parent="1">
          <mxGeometry x="-30" y="270" width="120" height="80" as="geometry" />
        </mxCell>
        <mxCell id="OpBf5v95MKLxLmsZDk0Y-19" style="edgeStyle=orthogonalEdgeStyle;shape=connector;rounded=0;orthogonalLoop=1;jettySize=auto;html=1;exitX=0.5;exitY=0;exitDx=0;exitDy=0;entryX=0.5;entryY=1;entryDx=0;entryDy=0;labelBackgroundColor=default;strokeColor=default;align=center;verticalAlign=middle;fontFamily=Helvetica;fontSize=11;fontColor=default;endArrow=none;endFill=0;" edge="1" parent="1" source="OpBf5v95MKLxLmsZDk0Y-8" target="OpBf5v95MKLxLmsZDk0Y-2">
          <mxGeometry relative="1" as="geometry" />
        </mxCell>
        <mxCell id="OpBf5v95MKLxLmsZDk0Y-8" value="&lt;i&gt;KundeID(FK)&lt;/i&gt;" style="ellipse;whiteSpace=wrap;html=1;" vertex="1" parent="1">
          <mxGeometry x="480" y="400" width="120" height="80" as="geometry" />
        </mxCell>
        <mxCell id="OpBf5v95MKLxLmsZDk0Y-22" style="edgeStyle=orthogonalEdgeStyle;shape=connector;rounded=0;orthogonalLoop=1;jettySize=auto;html=1;exitX=0;exitY=0;exitDx=0;exitDy=0;entryX=1;entryY=1;entryDx=0;entryDy=0;labelBackgroundColor=default;strokeColor=default;align=center;verticalAlign=middle;fontFamily=Helvetica;fontSize=11;fontColor=default;endArrow=none;endFill=0;" edge="1" parent="1" source="OpBf5v95MKLxLmsZDk0Y-9" target="OpBf5v95MKLxLmsZDk0Y-2">
          <mxGeometry relative="1" as="geometry" />
        </mxCell>
        <mxCell id="OpBf5v95MKLxLmsZDk0Y-9" value="Produktname" style="ellipse;whiteSpace=wrap;html=1;" vertex="1" parent="1">
          <mxGeometry x="680" y="400" width="120" height="80" as="geometry" />
        </mxCell>
        <mxCell id="OpBf5v95MKLxLmsZDk0Y-10" value="Status" style="ellipse;whiteSpace=wrap;html=1;" vertex="1" parent="1">
          <mxGeometry x="680" y="270" width="120" height="80" as="geometry" />
        </mxCell>
        <mxCell id="OpBf5v95MKLxLmsZDk0Y-20" style="edgeStyle=orthogonalEdgeStyle;shape=connector;rounded=0;orthogonalLoop=1;jettySize=auto;html=1;exitX=0;exitY=1;exitDx=0;exitDy=0;entryX=1;entryY=0;entryDx=0;entryDy=0;labelBackgroundColor=default;strokeColor=default;align=center;verticalAlign=middle;fontFamily=Helvetica;fontSize=11;fontColor=default;endArrow=none;endFill=0;" edge="1" parent="1" source="OpBf5v95MKLxLmsZDk0Y-11" target="OpBf5v95MKLxLmsZDk0Y-2">
          <mxGeometry relative="1" as="geometry" />
        </mxCell>
        <mxCell id="OpBf5v95MKLxLmsZDk0Y-11" value="Bestelldatum" style="ellipse;whiteSpace=wrap;html=1;" vertex="1" parent="1">
          <mxGeometry x="680" y="120" width="120" height="80" as="geometry" />
        </mxCell>
        <mxCell id="OpBf5v95MKLxLmsZDk0Y-18" style="edgeStyle=orthogonalEdgeStyle;shape=connector;rounded=0;orthogonalLoop=1;jettySize=auto;html=1;exitX=0.5;exitY=1;exitDx=0;exitDy=0;entryX=0.5;entryY=0;entryDx=0;entryDy=0;labelBackgroundColor=default;strokeColor=default;align=center;verticalAlign=middle;fontFamily=Helvetica;fontSize=11;fontColor=default;endArrow=none;endFill=0;" edge="1" parent="1" source="OpBf5v95MKLxLmsZDk0Y-12" target="OpBf5v95MKLxLmsZDk0Y-2">
          <mxGeometry relative="1" as="geometry" />
        </mxCell>
        <mxCell id="OpBf5v95MKLxLmsZDk0Y-12" value="&lt;u&gt;BestellungID(PK)&lt;/u&gt;" style="ellipse;whiteSpace=wrap;html=1;" vertex="1" parent="1">
          <mxGeometry x="480" y="120" width="120" height="80" as="geometry" />
        </mxCell>
        <mxCell id="OpBf5v95MKLxLmsZDk0Y-15" style="edgeStyle=orthogonalEdgeStyle;shape=connector;rounded=0;orthogonalLoop=1;jettySize=auto;html=1;exitX=1;exitY=0.5;exitDx=0;exitDy=0;entryX=0.018;entryY=0.591;entryDx=0;entryDy=0;entryPerimeter=0;labelBackgroundColor=default;strokeColor=default;align=center;verticalAlign=middle;fontFamily=Helvetica;fontSize=11;fontColor=default;endArrow=none;endFill=0;" edge="1" parent="1" source="OpBf5v95MKLxLmsZDk0Y-7" target="OpBf5v95MKLxLmsZDk0Y-1">
          <mxGeometry relative="1" as="geometry" />
        </mxCell>
        <mxCell id="OpBf5v95MKLxLmsZDk0Y-21" style="edgeStyle=orthogonalEdgeStyle;shape=connector;rounded=0;orthogonalLoop=1;jettySize=auto;html=1;exitX=0;exitY=0.5;exitDx=0;exitDy=0;entryX=0.984;entryY=0.585;entryDx=0;entryDy=0;entryPerimeter=0;labelBackgroundColor=default;strokeColor=default;align=center;verticalAlign=middle;fontFamily=Helvetica;fontSize=11;fontColor=default;endArrow=none;endFill=0;" edge="1" parent="1" source="OpBf5v95MKLxLmsZDk0Y-10" target="OpBf5v95MKLxLmsZDk0Y-2">
          <mxGeometry relative="1" as="geometry" />
        </mxCell>
        <mxCell id="OpBf5v95MKLxLmsZDk0Y-23" value="bestellt" style="rhombus;whiteSpace=wrap;html=1;fontFamily=Helvetica;fontSize=11;fontColor=default;" vertex="1" parent="1">
          <mxGeometry x="350" y="250" width="80" height="80" as="geometry" />
        </mxCell>
        <mxCell id="OpBf5v95MKLxLmsZDk0Y-24" style="edgeStyle=orthogonalEdgeStyle;shape=connector;rounded=0;orthogonalLoop=1;jettySize=auto;html=1;exitX=0;exitY=0.5;exitDx=0;exitDy=0;entryX=1;entryY=0.415;entryDx=0;entryDy=0;entryPerimeter=0;labelBackgroundColor=default;strokeColor=default;align=center;verticalAlign=middle;fontFamily=Helvetica;fontSize=11;fontColor=default;endArrow=none;endFill=0;" edge="1" parent="1" source="OpBf5v95MKLxLmsZDk0Y-23" target="OpBf5v95MKLxLmsZDk0Y-1">
          <mxGeometry relative="1" as="geometry" />
        </mxCell>
        <mxCell id="OpBf5v95MKLxLmsZDk0Y-26" value="1" style="edgeLabel;html=1;align=center;verticalAlign=middle;resizable=0;points=[];fontSize=11;fontFamily=Helvetica;fontColor=default;" vertex="1" connectable="0" parent="OpBf5v95MKLxLmsZDk0Y-24">
          <mxGeometry x="-0.0033" y="-1" relative="1" as="geometry">
            <mxPoint y="3" as="offset" />
          </mxGeometry>
        </mxCell>
        <mxCell id="OpBf5v95MKLxLmsZDk0Y-25" style="edgeStyle=orthogonalEdgeStyle;shape=connector;rounded=0;orthogonalLoop=1;jettySize=auto;html=1;exitX=1;exitY=0.5;exitDx=0;exitDy=0;entryX=0.014;entryY=0.422;entryDx=0;entryDy=0;entryPerimeter=0;labelBackgroundColor=default;strokeColor=default;align=center;verticalAlign=middle;fontFamily=Helvetica;fontSize=11;fontColor=default;endArrow=none;endFill=0;" edge="1" parent="1" source="OpBf5v95MKLxLmsZDk0Y-23" target="OpBf5v95MKLxLmsZDk0Y-2">
          <mxGeometry relative="1" as="geometry" />
        </mxCell>
        <mxCell id="OpBf5v95MKLxLmsZDk0Y-27" value="m" style="edgeLabel;html=1;align=center;verticalAlign=middle;resizable=0;points=[];fontSize=11;fontFamily=Helvetica;fontColor=default;" vertex="1" connectable="0" parent="OpBf5v95MKLxLmsZDk0Y-25">
          <mxGeometry x="0.043" y="-3" relative="1" as="geometry">
            <mxPoint as="offset" />
          </mxGeometry>
        </mxCell>
      </root>
    </mxGraphModel>
  </diagram>
</mxfile>
